<?xml version="1.0" encoding="utf-8"?>
<!-- Svg Vector Icons : http://www.onlinewebfonts.com/icon -->
<!DOCTYPE svg PUBLIC "-//W3C//DTD SVG 1.1//EN" "http://www.w3.org/Graphics/SVG/1.1/DTD/svg11.dtd">
<svg version="1.1" xmlns="http://www.w3.org/2000/svg" xmlns:xlink="http://www.w3.org/1999/xlink" x="0px" y="0px" viewBox="0 0 1000 1000" enable-background="new 0 0 1000 1000" xml:space="preserve">
<metadata> Svg Vector Icons : http://www.onlinewebfonts.com/icon </metadata>
<g><g transform="translate(0.000000,511.000000) scale(0.100000,-0.100000)"><path d="M3846.5,4177.9l-1121-842.3l-2-721.4c0-397.6,4.1-723.4,10.2-723.4c6.1,0,508.2,368.9,1116.9,819.7c606.6,450.8,1112.8,819.7,1125.1,819.7c10.2,0,522.6-373,1137.4-830c616.8-457,1129.2-830,1139.4-830c12.3,0,20.5,252.1,20.5,715.2v713.2l-1131.2,850.5c-623,467.2-1141.5,854.6-1153.8,860.7C4977.7,5016.1,4463.3,4643.1,3846.5,4177.9z"/><path d="M3580.1,1630.6L2190.6,577.2v-893.5c0-764.4,4.1-889.4,28.7-881.2c16.4,6.2,639.4,469.3,1383.3,1026.7c746,559.5,1362.8,1016.5,1373.1,1016.5c8.2,0,649.6-473.4,1424.3-1053.4L7805.8-1261v907.9v907.9l-55.3,36.9c-32.8,18.4-661.9,493.9-1399.7,1053.3C5613,2204.4,5000.2,2667.5,4988,2673.7C4977.7,2679.8,4342.4,2210.5,3580.1,1630.6z"/><path d="M3307.5-1351.2L1668-2587l-6.1-1082c-2.1-702.9,2-1082.1,16.4-1075.9c10.2,2,739.8,555.4,1621,1225.5c881.2,670.1,1614.9,1227.6,1629.2,1235.7c20.5,10.3,553.3-379.1,1698.9-1246C7545.5-4222.3,8305.8-4790,8318.1-4790c14.3,0,20.5,348.4,20.5,1071.8v1071.8L6656.1-1386C5729.8-695.4,4967.5-125.7,4959.3-121.6C4951.1-119.6,4207.1-672.9,3307.5-1351.2z"/></g></g>
</svg>